<svg width="31" height="12" viewBox="0 0 31 12" fill="none" xmlns="http://www.w3.org/2000/svg">
<path fill-rule="evenodd" clip-rule="evenodd" d="M24.7364 0.238675C24.8118 0.163018 24.9015 0.102993 25.0002 0.0620369C25.0989 0.021081 25.2047 0 25.3115 0C25.4184 0 25.5242 0.021081 25.6229 0.0620369C25.7216 0.102993 25.8113 0.163018 25.8867 0.238675L30.7612 5.11313C30.8368 5.1886 30.8969 5.27825 30.9378 5.37695C30.9788 5.47565 30.9999 5.58146 30.9999 5.68832C30.9999 5.79518 30.9788 5.90099 30.9378 5.99969C30.8969 6.09839 30.8368 6.18804 30.7612 6.2635L25.8867 11.138C25.7342 11.2905 25.5273 11.3762 25.3115 11.3762C25.0958 11.3762 24.8889 11.2905 24.7364 11.138C24.5838 10.9854 24.4981 10.7785 24.4981 10.5628C24.4981 10.347 24.5838 10.1401 24.7364 9.98759L29.0373 5.68832L24.7364 1.38905C24.6607 1.31358 24.6007 1.22393 24.5597 1.12523C24.5188 1.02653 24.4977 0.920721 24.4977 0.813861C24.4977 0.707001 24.5188 0.601191 24.5597 0.502491C24.6007 0.403791 24.6607 0.314141 24.7364 0.238675Z" fill="white"/>
<path fill-rule="evenodd" clip-rule="evenodd" d="M18 5.68839C18 5.47292 18.0856 5.26628 18.2379 5.11393C18.3903 4.96157 18.5969 4.87598 18.8124 4.87598H29.3737C29.5892 4.87598 29.7958 4.96157 29.9482 5.11393C30.1005 5.26628 30.1861 5.47292 30.1861 5.68839C30.1861 5.90385 30.1005 6.11049 29.9482 6.26285C29.7958 6.4152 29.5892 6.5008 29.3737 6.5008H18.8124C18.5969 6.5008 18.3903 6.4152 18.2379 6.26285C18.0856 6.11049 18 5.90385 18 5.68839Z" fill="white"/>
<path fill-rule="evenodd" clip-rule="evenodd" d="M6.26364 11.1375C6.18818 11.2132 6.09853 11.2732 5.99983 11.3142C5.90113 11.3551 5.79532 11.3762 5.68846 11.3762C5.5816 11.3762 5.47579 11.3551 5.37709 11.3142C5.27839 11.2732 5.18874 11.2132 5.11327 11.1375L0.238818 6.26309C0.163161 6.18762 0.103136 6.09797 0.06218 5.99927C0.021224 5.90057 0.000142109 5.79476 0.000142118 5.6879C0.000142127 5.58104 0.0212241 5.47523 0.0621801 5.37653C0.103136 5.27783 0.163161 5.18818 0.238818 5.11272L5.11327 0.238262C5.26582 0.0857133 5.47272 1.32614e-05 5.68846 1.32803e-05C5.9042 1.32992e-05 6.1111 0.0857134 6.26365 0.238262C6.41619 0.390811 6.50189 0.597712 6.50189 0.813448C6.50189 1.02918 6.41619 1.23608 6.26364 1.38863L1.96275 5.6879L6.26364 9.98717C6.3393 10.0626 6.39933 10.1523 6.44028 10.251C6.48124 10.3497 6.50232 10.4555 6.50232 10.5624C6.50232 10.6692 6.48124 10.775 6.44028 10.8737C6.39933 10.9724 6.3393 11.0621 6.26364 11.1375Z" fill="white"/>
<path fill-rule="evenodd" clip-rule="evenodd" d="M13 5.68783C13 5.9033 12.9144 6.10994 12.7621 6.26229C12.6097 6.41465 12.4031 6.50024 12.1876 6.50024L1.62627 6.50024C1.41081 6.50024 1.20417 6.41465 1.05181 6.26229C0.899453 6.10994 0.813861 5.9033 0.813861 5.68783C0.813861 5.47237 0.899453 5.26573 1.05181 5.11337C1.20417 4.96102 1.41081 4.87542 1.62627 4.87542L12.1876 4.87543C12.4031 4.87543 12.6097 4.96102 12.7621 5.11337C12.9144 5.26573 13 5.47237 13 5.68783Z" fill="white"/>
</svg>
