<svg width="9" height="8" viewBox="0 0 9 8" fill="none" xmlns="http://www.w3.org/2000/svg">
<path fill-rule="evenodd" clip-rule="evenodd" d="M7.85439 0.145917C7.90095 0.192363 7.93789 0.247538 7.9631 0.308284C7.98831 0.369029 8.00128 0.43415 8.00128 0.499917C8.00128 0.565685 7.98831 0.630806 7.9631 0.691551C7.93789 0.752296 7.90095 0.807472 7.85439 0.853917L0.854388 7.85392C0.760501 7.9478 0.633163 8.00055 0.500387 8.00055C0.367612 8.00055 0.240274 7.9478 0.146387 7.85392C0.0525007 7.76003 -0.00024414 7.63269 -0.000244141 7.49992C-0.000244142 7.36714 0.0525007 7.2398 0.146387 7.14592L7.14639 0.145917C7.19283 0.0993539 7.24801 0.062411 7.30875 0.0372045C7.3695 0.0119981 7.43462 -0.000976563 7.50039 -0.000976562C7.56615 -0.000976563 7.63128 0.0119981 7.69202 0.0372045C7.75277 0.062411 7.80794 0.0993539 7.85439 0.145917Z" fill="#415A77"/>
<path fill-rule="evenodd" clip-rule="evenodd" d="M0.146405 0.145917C0.0998422 0.192363 0.0628992 0.247538 0.0376928 0.308284C0.0124863 0.369029 -0.000488281 0.43415 -0.000488281 0.499917C-0.000488281 0.565685 0.0124863 0.630806 0.0376928 0.691551C0.0628992 0.752296 0.0998422 0.807472 0.146405 0.853917L7.14641 7.85392C7.24029 7.9478 7.36763 8.00055 7.50041 8.00055C7.63318 8.00055 7.76052 7.9478 7.85441 7.85392C7.94829 7.76003 8.00104 7.63269 8.00104 7.49992C8.00104 7.36714 7.94829 7.2398 7.85441 7.14592L0.854406 0.145917C0.80796 0.0993539 0.752784 0.062411 0.692039 0.0372045C0.631294 0.0119981 0.566173 -0.000976562 0.500406 -0.000976562C0.434638 -0.000976562 0.369517 0.0119981 0.308772 0.0372045C0.248027 0.062411 0.192851 0.0993539 0.146405 0.145917Z" fill="#415A77"/>
</svg>
