<svg width="21" height="58" viewBox="0 0 21 58" fill="none" xmlns="http://www.w3.org/2000/svg">
<path fill-rule="evenodd" clip-rule="evenodd" d="M4 0C2.89543 0 2 0.895432 2 2V27.5755L0 29.5L2 31.4245V56C2 57.1046 2.89543 58 4 58H19C20.1046 58 21 57.1046 21 56V2C21 0.895431 20.1046 0 19 0H4Z" fill="#0D1B2A" fill-opacity="0.9"/>
<path fill-rule="evenodd" clip-rule="evenodd" d="M18 8.5C18 10.2239 17.3152 11.8772 16.0962 13.0962C14.8772 14.3152 13.2239 15 11.5 15C9.77609 15 8.12279 14.3152 6.90381 13.0962C5.68482 11.8772 5 10.2239 5 8.5C5 6.77609 5.68482 5.12279 6.90381 3.90381C8.12279 2.68482 9.77609 2 11.5 2C13.2239 2 14.8772 2.68482 16.0962 3.90381C17.3152 5.12279 18 6.77609 18 8.5ZM11.9062 5.25C11.9062 5.14226 11.8634 5.03892 11.7873 4.96274C11.7111 4.88655 11.6077 4.84375 11.5 4.84375C11.3923 4.84375 11.2889 4.88655 11.2127 4.96274C11.1366 5.03892 11.0938 5.14226 11.0938 5.25V8.09375H8.25C8.14226 8.09375 8.03892 8.13655 7.96274 8.21274C7.88655 8.28892 7.84375 8.39226 7.84375 8.5C7.84375 8.60774 7.88655 8.71108 7.96274 8.78726C8.03892 8.86345 8.14226 8.90625 8.25 8.90625H11.0938V11.75C11.0938 11.8577 11.1366 11.9611 11.2127 12.0373C11.2889 12.1134 11.3923 12.1562 11.5 12.1562C11.6077 12.1562 11.7111 12.1134 11.7873 12.0373C11.8634 11.9611 11.9062 11.8577 11.9062 11.75V8.90625H14.75C14.8577 8.90625 14.9611 8.86345 15.0373 8.78726C15.1134 8.71108 15.1562 8.60774 15.1562 8.5C15.1562 8.39226 15.1134 8.28892 15.0373 8.21274C14.9611 8.13655 14.8577 8.09375 14.75 8.09375H11.9062V5.25Z" fill="#219653"/>
<g clip-path="url(#clip0)">
<path fill-rule="evenodd" clip-rule="evenodd" d="M6.34375 21.9375C6.09511 21.9375 5.85665 22.0363 5.68084 22.2121C5.50502 22.3879 5.40625 22.6264 5.40625 22.875V23.8125C5.40625 24.0611 5.50502 24.2996 5.68084 24.4754C5.85665 24.6512 6.09511 24.75 6.34375 24.75H6.8125V33.1875C6.8125 33.6848 7.01004 34.1617 7.36167 34.5133C7.71331 34.865 8.19022 35.0625 8.6875 35.0625H14.3125C14.8098 35.0625 15.2867 34.865 15.6383 34.5133C15.99 34.1617 16.1875 33.6848 16.1875 33.1875V24.75H16.6562C16.9049 24.75 17.1433 24.6512 17.3192 24.4754C17.495 24.2996 17.5938 24.0611 17.5938 23.8125V22.875C17.5938 22.6264 17.495 22.3879 17.3192 22.2121C17.1433 22.0363 16.9049 21.9375 16.6562 21.9375H13.375C13.375 21.6889 13.2762 21.4504 13.1004 21.2746C12.9246 21.0988 12.6861 21 12.4375 21H10.5625C10.3139 21 10.0754 21.0988 9.89959 21.2746C9.72377 21.4504 9.625 21.6889 9.625 21.9375H6.34375ZM9.15625 25.6875C9.28057 25.6875 9.3998 25.7369 9.48771 25.8248C9.57561 25.9127 9.625 26.0319 9.625 26.1562V32.7188C9.625 32.8431 9.57561 32.9623 9.48771 33.0502C9.3998 33.1381 9.28057 33.1875 9.15625 33.1875C9.03193 33.1875 8.9127 33.1381 8.82479 33.0502C8.73689 32.9623 8.6875 32.8431 8.6875 32.7188V26.1562C8.6875 26.0319 8.73689 25.9127 8.82479 25.8248C8.9127 25.7369 9.03193 25.6875 9.15625 25.6875ZM11.5 25.6875C11.6243 25.6875 11.7435 25.7369 11.8315 25.8248C11.9194 25.9127 11.9688 26.0319 11.9688 26.1562V32.7188C11.9688 32.8431 11.9194 32.9623 11.8315 33.0502C11.7435 33.1381 11.6243 33.1875 11.5 33.1875C11.3757 33.1875 11.2565 33.1381 11.1685 33.0502C11.0806 32.9623 11.0312 32.8431 11.0312 32.7188V26.1562C11.0312 26.0319 11.0806 25.9127 11.1685 25.8248C11.2565 25.7369 11.3757 25.6875 11.5 25.6875ZM14.3125 26.1562C14.3125 26.0319 14.2631 25.9127 14.1752 25.8248C14.0873 25.7369 13.9681 25.6875 13.8438 25.6875C13.7194 25.6875 13.6002 25.7369 13.5123 25.8248C13.4244 25.9127 13.375 26.0319 13.375 26.1562V32.7188C13.375 32.8431 13.4244 32.9623 13.5123 33.0502C13.6002 33.1381 13.7194 33.1875 13.8438 33.1875C13.9681 33.1875 14.0873 33.1381 14.1752 33.0502C14.2631 32.9623 14.3125 32.8431 14.3125 32.7188V26.1562Z" fill="#EB5757"/>
</g>
<path d="M18.5642 43.6975C18.646 43.7795 18.6919 43.8906 18.6919 44.0064C18.6919 44.1222 18.646 44.2332 18.5642 44.3152L17.6516 45.2287L15.9016 43.4787L16.8142 42.5652C16.8963 42.4832 17.0075 42.4371 17.1236 42.4371C17.2396 42.4371 17.3508 42.4832 17.4329 42.5652L18.5642 43.6966V43.6975ZM17.033 45.8465L15.283 44.0965L9.32162 50.0587C9.27346 50.1069 9.23721 50.1656 9.21575 50.2302L8.51137 52.3425C8.4986 52.381 8.49678 52.4223 8.50613 52.4618C8.51548 52.5013 8.53563 52.5374 8.56431 52.566C8.593 52.5947 8.6291 52.6149 8.66858 52.6242C8.70806 52.6336 8.74936 52.6318 8.78787 52.619L10.9001 51.9146C10.9647 51.8934 11.0234 51.8575 11.0716 51.8096L17.033 45.8474V45.8465Z" fill="#F2994A"/>
<path fill-rule="evenodd" clip-rule="evenodd" d="M5.875 53.8125C5.875 54.1606 6.01328 54.4944 6.25942 54.7406C6.50556 54.9867 6.8394 55.125 7.1875 55.125H16.8125C17.1606 55.125 17.4944 54.9867 17.7406 54.7406C17.9867 54.4944 18.125 54.1606 18.125 53.8125V48.5625C18.125 48.4465 18.0789 48.3352 17.9969 48.2531C17.9148 48.1711 17.8035 48.125 17.6875 48.125C17.5715 48.125 17.4602 48.1711 17.3781 48.2531C17.2961 48.3352 17.25 48.4465 17.25 48.5625V53.8125C17.25 53.9285 17.2039 54.0398 17.1219 54.1219C17.0398 54.2039 16.9285 54.25 16.8125 54.25H7.1875C7.07147 54.25 6.96019 54.2039 6.87814 54.1219C6.79609 54.0398 6.75 53.9285 6.75 53.8125V44.1875C6.75 44.0715 6.79609 43.9602 6.87814 43.8781C6.96019 43.7961 7.07147 43.75 7.1875 43.75H12.875C12.991 43.75 13.1023 43.7039 13.1844 43.6219C13.2664 43.5398 13.3125 43.4285 13.3125 43.3125C13.3125 43.1965 13.2664 43.0852 13.1844 43.0031C13.1023 42.9211 12.991 42.875 12.875 42.875H7.1875C6.8394 42.875 6.50556 43.0133 6.25942 43.2594C6.01328 43.5056 5.875 43.8394 5.875 44.1875V53.8125Z" fill="#F2994A"/>
<defs>
<clipPath id="clip0">
<rect width="15" height="15" fill="white" transform="translate(4 21)"/>
</clipPath>
</defs>
</svg>
