<svg width="78" height="26" viewBox="0 0 78 26" fill="none" xmlns="http://www.w3.org/2000/svg">
<path d="M21.5467 20V6H24.9867V20H21.5467ZM27.3084 6H30.5484L36.9084 14.12V6H40.1484V20H37.1084L30.5484 11.56V20H27.3084V6ZM56.9247 13C56.9247 14 56.7314 14.9467 56.3447 15.84C55.958 16.72 55.4314 17.4867 54.7647 18.14C54.098 18.78 53.3047 19.2867 52.3847 19.66C51.4647 20.0333 50.4847 20.22 49.4447 20.22C48.4047 20.22 47.4247 20.0333 46.5047 19.66C45.5847 19.2867 44.7914 18.78 44.1247 18.14C43.458 17.4867 42.9314 16.72 42.5447 15.84C42.158 14.9467 41.9647 14 41.9647 13C41.9647 12 42.158 11.06 42.5447 10.18C42.9314 9.28667 43.458 8.52 44.1247 7.88C44.7914 7.22667 45.5847 6.71333 46.5047 6.34C47.4247 5.96667 48.4047 5.78 49.4447 5.78C50.4847 5.78 51.4647 5.96667 52.3847 6.34C53.3047 6.71333 54.098 7.22667 54.7647 7.88C55.4314 8.52 55.958 9.28667 56.3447 10.18C56.7314 11.06 56.9247 12 56.9247 13ZM53.3847 13C53.3847 12.4267 53.2847 11.8933 53.0847 11.4C52.8847 10.8933 52.6047 10.46 52.2447 10.1C51.898 9.74 51.4847 9.46 51.0047 9.26C50.5247 9.04667 50.0047 8.94 49.4447 8.94C48.8847 8.94 48.3647 9.04667 47.8847 9.26C47.4047 9.46 46.9847 9.74 46.6247 10.1C46.278 10.46 46.0047 10.8933 45.8047 11.4C45.6047 11.8933 45.5047 12.4267 45.5047 13C45.5047 13.5733 45.6047 14.1133 45.8047 14.62C46.0047 15.1133 46.278 15.54 46.6247 15.9C46.9847 16.26 47.4047 16.5467 47.8847 16.76C48.3647 16.96 48.8847 17.06 49.4447 17.06C50.0047 17.06 50.5247 16.96 51.0047 16.76C51.4847 16.5467 51.898 16.26 52.2447 15.9C52.6047 15.54 52.8847 15.1133 53.0847 14.62C53.2847 14.1133 53.3847 13.5733 53.3847 13ZM56.653 20L62.393 6H66.333L71.993 20H68.273L66.993 16.62H61.533L60.233 20H56.653ZM62.573 13.88H65.973L64.293 9.4L62.573 13.88ZM73.0116 20V6H76.4516V20H73.0116Z" fill="#E0E1DD"/>
<path d="M11.6631 12.6234L9.02529 10.8541L16.1023 6.15757C16.5848 5.83589 17.1639 5.67505 17.7107 5.67505C18.6436 5.67505 19.5765 6.1254 20.1555 6.99395L11.6631 12.6234Z" fill="#E0E1DD"/>
<path d="M5.74421 21.8557C6.74142 20.762 6.77359 19.0893 5.93722 17.8669C5.84071 17.706 5.71204 17.5773 5.58337 17.4487L7.35262 16.2584C7.64214 16.0654 7.70647 15.6794 7.51346 15.3899L7.4813 15.3577L7.80298 15.1326L7.12744 14.6822C6.9666 14.5857 6.83793 14.4249 6.77359 14.264L6.74143 14.1997C6.54842 13.9102 6.1624 13.8137 5.87288 14.0067L1.53016 16.9018C0.050422 17.899 -0.464271 19.8935 0.468609 21.4375C1.62667 23.2711 4.2323 23.5928 5.74421 21.8557ZM1.72317 20.762C1.14414 19.8935 1.40149 18.7676 2.23787 18.1885C3.07424 17.6095 4.2323 17.8669 4.81133 18.7032C5.39036 19.5718 5.13301 20.7298 4.29663 21.2767C3.42809 21.8557 2.27003 21.5984 1.72317 20.762Z" fill="#E0E1DD"/>
<path d="M2.23797 7.83041C1.36942 7.25138 1.14424 6.12549 1.72327 5.25695C2.3023 4.38841 3.42819 4.16323 4.29674 4.74226C5.16528 5.32129 5.39046 6.44718 4.81143 7.31572C4.2324 8.1521 3.10651 8.40944 2.23797 7.83041ZM20.1235 19.025L11.0842 13.0095L8.44645 11.2403L7.54573 10.6291L7.5779 10.5969C7.77091 10.3074 7.67441 9.92135 7.41706 9.72834L5.6478 8.53812C5.77648 8.40944 5.90515 8.2486 6.00166 8.11993C6.83803 6.89753 6.77369 5.22478 5.80865 4.13106C4.2324 2.42614 1.62677 2.71566 0.500877 4.54925C-0.432003 6.06116 0.082691 8.08776 1.56243 9.08498L5.90515 11.9801C6.19466 12.1731 6.58068 12.0766 6.77369 11.8193L6.80586 11.7549C7.25622 12.0445 7.51357 12.527 7.54573 13.0417C7.54573 13.299 7.51356 13.5564 7.41706 13.8137C7.35272 13.9424 7.38489 14.1354 7.54573 14.1997L8.44645 14.8109L16.1025 19.8935C17.4214 20.7299 19.2228 20.376 20.1235 19.025ZM8.38211 13.2347C8.38211 12.9452 8.60729 12.72 8.8968 12.72C9.18632 12.72 9.41149 12.9452 9.41149 13.2347C9.41149 13.5242 9.18632 13.7494 8.8968 13.7494C8.63945 13.7815 8.38211 13.5242 8.38211 13.2347Z" fill="#E0E1DD"/>
<rect x="7.10791" y="5.50879" width="2.92675" height="14.6338" fill="#E0E1DD"/>
</svg>
