<svg width="24" height="25" viewBox="0 0 24 25" fill="none" xmlns="http://www.w3.org/2000/svg">
<path d="M12 0C5.37321 0 0 5.5971 0 12.5C0 19.4029 5.37321 25 12 25C18.6268 25 24 19.4029 24 12.5C24 5.5971 18.6268 0 12 0ZM9.85714 16.7411C9.85714 16.8638 9.76071 16.9643 9.64286 16.9643H8.35714C8.23929 16.9643 8.14286 16.8638 8.14286 16.7411V8.25893C8.14286 8.13616 8.23929 8.03571 8.35714 8.03571H9.64286C9.76071 8.03571 9.85714 8.13616 9.85714 8.25893V16.7411ZM15.8571 16.7411C15.8571 16.8638 15.7607 16.9643 15.6429 16.9643H14.3571C14.2393 16.9643 14.1429 16.8638 14.1429 16.7411V8.25893C14.1429 8.13616 14.2393 8.03571 14.3571 8.03571H15.6429C15.7607 8.03571 15.8571 8.13616 15.8571 8.25893V16.7411Z" fill="#007BFE"/>
</svg>
