<svg width="14" height="14" viewBox="0 0 14 14" fill="none" xmlns="http://www.w3.org/2000/svg">
<path fill-rule="evenodd" clip-rule="evenodd" d="M10.2935 0.292786C10.481 0.105315 10.7353 0 11.0005 0C11.2657 0 11.52 0.105315 11.7075 0.292786L13.7075 2.29279C13.895 2.48031 14.0003 2.73462 14.0003 2.99979C14.0003 3.26495 13.895 3.51926 13.7075 3.70679L4.70749 12.7068C4.59801 12.8166 4.46449 12.8994 4.31749 12.9488L1.31749 13.9488C1.14123 14.0078 0.95202 14.0165 0.771085 13.974C0.590151 13.9314 0.424655 13.8393 0.293173 13.7079C0.161691 13.5765 0.0694262 13.4111 0.0267348 13.2302C-0.0159566 13.0493 -0.00738526 12.8601 0.0514868 12.6838L1.05149 9.68379C1.10069 9.53642 1.18354 9.40255 1.29349 9.29279L10.2935 0.292786ZM11.0005 0.999786L13.0005 2.99979L4.00049 11.9998L1.00049 12.9998L2.00049 9.99979L11.0005 0.999786Z" fill="#415A77"/>
<path fill-rule="evenodd" clip-rule="evenodd" d="M11.1465 5.35375L8.64649 2.85375L9.35449 2.14575L11.8545 4.64575L11.1475 5.35375H11.1465ZM2.00049 8.99975V9.49975C2.00049 9.63236 2.05317 9.75954 2.14693 9.85331C2.2407 9.94707 2.36788 9.99975 2.50049 9.99975H3.00049V10.4998C3.00049 10.6324 3.05317 10.7595 3.14693 10.8533C3.2407 10.9471 3.36788 10.9998 3.50049 10.9998H4.00049V11.4998C4.00049 11.6324 4.05317 11.7595 4.14693 11.8533C4.2407 11.9471 4.36788 11.9998 4.50049 11.9998H5.00049V10.4998C5.00049 10.3671 4.94781 10.24 4.85404 10.1462C4.76027 10.0524 4.6331 9.99975 4.50049 9.99975H4.00049V9.49975C4.00049 9.36714 3.94781 9.23997 3.85404 9.1462C3.76027 9.05243 3.6331 8.99975 3.50049 8.99975H2.00049Z" fill="#415A77"/>
</svg>
